<?xml version="1.0" encoding="utf-8"?>
<?xml-stylesheet type="text/xsl" href="rss1.xsl"?>
<rss version="2.0" xmlns:atom="http://www.w3.org/2005/Atom" xmlns:content="http://purl.org/rss/1.0/modules/content/" xmlns:dc="http://purl.org/dc/elements/1.1/" xmlns:media="http://search.yahoo.com/mrss/">
<channel>
 <title>Getty</title>
 <link>http://www.gettyimg.com/</link>
 <atom:link href="http://www.gettyimg.com/" rel="self" type="application/rss+xml" />

 
                <item>
                <title><![CDATA[【Cinema Center】SERIES - Star Wars: Clone Wars - Volume Two (2005) (DVD9 NTSC R1)]]></title>
                <link><![CDATA[https://sharemania.us/threads/star-wars-clone-wars-volume-two-2005-dvd9-ntsc-r1.233461/]]></link>
                <description><![CDATA[<article>
<blockquote class="messageText SelectQuoteContainer ugc baseHtml">
<b>Title</b>: Star Wars: Clone Wars – Volume Two<br>
<b>Format</b>: DVD<br>
<b>Release Date</b>: December 6, 2005<br>
<br>
<div class="bbCodeBlock bbCodeCode">
<div class="type">Code:</div>
<pre>General
Complete name                            : /Users/austinzimmermann/Downloads/CLONE_WARS_2.iso
Format                                   : ISO 9660 / DVD Video
Format profile                           : Program
File size                                : 5.17 GiB
Duration                                 : 1 h 3 min
Overall bit rate mode                    : Variable
Overall bit rate                         : 11.7 Mb/s
Frame rate                               : 29.970 FPS
Movie name                               : CLONE_WARS_2
Encoded date                             : 2005-09-14 21:17:57.00+56:00

Video
ID                                       : 224 (0xE0)
Format                                   : MPEG Video
Format version                           : Version 2
Format profile                           : Main@Main
Format settings                          : CustomMatrix / BVOP
Format settings, BVOP                    : Yes
Format settings, Matrix                  : Custom
Format settings, GOP                     : Variable
Duration                                 : 1 h 3 min
Bit rate mode                            : Variable
Bit rate                                 : 9 955 kb/s
Width                                    : 720 pixels
Height                                   : 480 pixels
Display aspect ratio                     : 16:9
Frame rate                               : 29.970 (29970/1000) FPS
Original frame rate                      : 23.976 (24000/1001) FPS
Standard                                 : NTSC
Color space                              : YUV
Chroma subsampling                       : 4:2:0
Bit depth                                : 8 bits
Scan type                                : Progressive
Scan order                               : 2:3 Pulldown
Compression mode                         : Lossy
Bits/(Pixel*Frame)                       : 0.961
Time code of first frame                 : 01:00:00:00
Time code source                         : Group of pictures header
Stream size                              : 4.42 GiB (85%)
Source                                   : VIDEO_TS/VTS_01_0.IFO

Audio #1
ID                                       : 189 (0xBD)-128 (0x80)
Format                                   : AC-3
Format/Info                              : Audio Coding 3
Commercial name                          : Dolby Digital
Muxing mode                              : DVD-Video
Duration                                 : 1 h 3 min
Bit rate mode                            : Constant
Bit rate                                 : 448 kb/s
Channel(s)                               : 6 channels
Channel layout                           : L R C LFE Ls Rs
Sampling rate                            : 48.0 kHz
Frame rate                               : 31.250 FPS (1536 SPF)
Compression mode                         : Lossy
Stream size                              : 204 MiB (4%)
Language                                 : English
Service kind                             : Complete Main
Source                                   : VIDEO_TS/VTS_01_0.IFO

Audio #2
ID                                       : 189 (0xBD)-129 (0x81)
Format                                   : AC-3
Format/Info                              : Audio Coding 3
Commercial name                          : Dolby Digital
Format settings                          : Dolby Surround
Muxing mode                              : DVD-Video
Duration                                 : 1 h 3 min
Bit rate mode                            : Constant
Bit rate                                 : 192 kb/s
Channel(s)                               : 2 channels
Channel layout                           : L R
Sampling rate                            : 48.0 kHz
Frame rate                               : 31.250 FPS (1536 SPF)
Compression mode                         : Lossy
Stream size                              : 87.3 MiB (2%)
Language                                 : English
Service kind                             : Complete Main
Source                                   : VIDEO_TS/VTS_01_0.IFO

Audio #3
ID                                       : 189 (0xBD)-130 (0x82)
Format                                   : AC-3
Format/Info                              : Audio Coding 3
Commercial name                          : Dolby Digital
Format settings                          : Dolby Surround
Muxing mode                              : DVD-Video
Duration                                 : 1 h 3 min
Bit rate mode                            : Constant
Bit rate                                 : 192 kb/s
Channel(s)                               : 2 channels
Channel layout                           : L R
Sampling rate                            : 48.0 kHz
Frame rate                               : 31.250 FPS (1536 SPF)
Compression mode                         : Lossy
Stream size                              : 87.3 MiB (2%)
Language                                 : Spanish
Service kind                             : Complete Main
Source                                   : VIDEO_TS/VTS_01_0.IFO

Audio #4
ID                                       : 189 (0xBD)-131 (0x83)
Format                                   : AC-3
Format/Info                              : Audio Coding 3
Commercial name                          : Dolby Digital
Format settings                          : Dolby Surround
Muxing mode                              : DVD-Video
Duration                                 : 1 h 3 min
Bit rate mode                            : Constant
Bit rate                                 : 192 kb/s
Channel(s)                               : 2 channels
Channel layout                           : L R
Sampling rate                            : 48.0 kHz
Frame rate                               : 31.250 FPS (1536 SPF)
Compression mode                         : Lossy
Stream size                              : 87.3 MiB (2%)
Language                                 : French
Service kind                             : Complete Main
Source                                   : VIDEO_TS/VTS_01_0.IFO

Audio #5
ID                                       : 189 (0xBD)-132 (0x84)
Format                                   : AC-3
Format/Info                              : Audio Coding 3
Commercial name                          : Dolby Digital
Format settings                          : Dolby Surround
Muxing mode                              : DVD-Video
Duration                                 : 1 h 3 min
Bit rate mode                            : Constant
Bit rate                                 : 192 kb/s
Channel(s)                               : 2 channels
Channel layout                           : L R
Sampling rate                            : 48.0 kHz
Frame rate                               : 31.250 FPS (1536 SPF)
Compression mode                         : Lossy
Stream size                              : 87.3 MiB (2%)
Language                                 : English
Language, more info                      : Director's comments
Service kind                             : Complete Main
Source                                   : VIDEO_TS/VTS_01_0.IFO

Text
ID                                       : 189 (0xBD)-32 (0x20)
Format                                   : RLE
Format/Info                              : Run-length encoding
Muxing mode                              : DVD-Video
Duration                                 : 1 h 3 min
Bit depth                                : 2 bits
Delay relative to video                  : 2 s 736 ms
Language                                 : English
Source                                   : VIDEO_TS/VTS_01_0.IFO

Menu
Duration                                 : 1 h 3 min
00:00:00.000                             : Chapter 1
00:12:49.333                             : Chapter 2
00:25:13.333                             : Chapter 3
00:37:38.667                             : Chapter 4
00:49:59.000                             : Chapter 5
01:02:51.233                             : Chapter 6
01:03:32.833                             : Chapter 7
List (Audio)                             : 0 / 1 / 2 / 3 / 4
List (Subtitles 4/3)                     : 0
List (Subtitles Wide)                    : 0
List (Subtitles Pan&amp;Scan)                : 0
Source                                   : VIDEO_TS/VTS_01_0.IFO
</pre>
</div><b>Download</b><br>
<ul>
<li><a href="https://gofile.io/d/LOlipu" target="_blank" class="externalLink" rel="nofollow">https://gofile.io/d/LOlipu</a></li>
</ul>
<div class="messageTextEndMarker">&nbsp;</div>
</blockquote>
</article>]]></description>
                <author><![CDATA[Austin Zimmermann]]></author>
                </item>

                </channel></rss>